Coordinates
version=1
nRows=22
nColumns=18
inDegrees=yes

Units are S.I. units (second, meters, Newtons, ...)
If the header above contains a line with 'inDegrees', this indicates whether rotational values are in degrees (yes) or radians (no).

endheader
time	bJoint_3	seatpos	slocangle	soarinout	sblpos	hipangle	kneeangle	footangle	lbackangle	uarmleft_out	uarmleft_trn	uarmleft_up	se_inout	se_updown	handleleft_out	handleleft_trn	handleleft_up
      5.24500000	      0.00000005	     -0.00320458	    -29.47643874	     13.79103002	    -13.79103002	     93.73443524	      4.52415495	      8.25859019	    -40.26132536	     67.21694843	     -7.51833599	   -183.27006641	   -109.53857799	    149.44630235	     21.05871252	     26.61624537	     -3.11930319
      5.25000000	      0.00000005	     -0.00320040	    -29.26889388	     13.78553344	    -13.78553344	     93.74147066	      4.51107652	      8.25254718	    -40.26413245	     66.85701617	     -7.02203969	   -181.32838963	   -111.12844649	    147.77006532	     20.69998492	     25.26599773	     -2.85091045
      5.25500000	      0.00000005	     -0.00323616	    -29.04584104	     13.78082304	    -13.78082304	     93.68195385	      4.62171917	      8.30367302	    -40.26184979	     66.39386864	     -6.55051002	   -183.34362930	   -111.89495009	    149.95078287	     20.43939852	     25.46617759	     -2.50843797
      5.26000000	      0.00000005	     -0.00330899	    -28.80856291	     13.77637386	    -13.77637386	     93.56491868	      4.83931870	      8.40423739	    -40.25421304	     66.12677954	     -5.89588493	   -185.41370201	   -112.80400751	    151.78972671	     20.10856456	     25.92540812	     -2.39910439
      5.26500000	      0.00000005	     -0.00332423	    -28.57483960	     13.77694080	    -13.77694080	     93.54109105	      4.88362539	      8.42471644	    -40.25449591	     65.71979058	     -5.32453933	   -187.35316859	   -113.72051969	    153.70425642	     19.78258040	     26.24167476	     -2.14664098
      5.27000000	      0.00000005	     -0.00337939	    -28.35608927	     13.77196047	    -13.77196047	     93.45661563	      5.04071757	      8.49733319	    -40.25071328	     65.26275014	     -4.85094158	   -187.64312220	   -114.84497604	    154.25496827	     19.46417905	     25.82374786	     -1.77996342
      5.27500000	      0.00000005	     -0.00339100	    -28.15442651	     13.76632707	    -13.76632707	     93.43916590	      5.07316994	      8.51233584	    -40.25105967	     64.90627854	     -4.34906590	   -187.89609600	   -115.95308304	    154.62122681	     19.12972676	     25.49225131	     -1.52134376
      5.28000000	      0.00000005	     -0.00339822	    -27.96952394	     13.77429385	    -13.77429385	     93.42837579	      5.09323744	      8.52161323	    -40.25168965	     64.57504257	     -3.88365839	   -187.52298324	   -117.09370661	    154.38354365	     18.82530482	     24.88059459	     -1.31910813
      5.28500000	      0.00000005	     -0.00347112	    -27.75492946	     13.76927148	    -13.76927148	     93.32169644	      5.29165790	      8.61335434	    -40.24650208	     64.12233733	     -3.40721992	   -188.78038193	   -118.01162222	    155.79769246	     18.50875879	     24.98776594	     -0.95447931
      5.29000000	      0.00000005	     -0.00349607	    -27.55713123	     13.76375807	    -13.76375807	     93.28610359	      5.35786672	      8.64397031	    -40.24553194	     63.76731337	     -2.90206217	   -188.61783381	   -119.21559000	    155.80243559	     18.15771445	     24.46651111	     -0.68869396
      5.29500000	      0.00000005	     -0.00350489	    -27.33402288	     13.75826306	    -13.75826306	     93.27362565	      5.38107868	      8.65470433	    -40.24583330	     63.45300501	     -2.25358728	   -187.33077837	   -120.91667104	    154.69560977	     17.71097530	     23.31596261	     -0.49138623
      5.30000000	      0.00000005	     -0.00357955	    -27.15268926	     13.74642913	    -13.74642913	     93.17006418	      5.57374482	      8.74380900	    -40.24087546	     63.05207613	     -1.84577592	   -188.24427272	   -121.74470723	    155.79983364	     17.41600171	     23.36424262	     -0.13357624
      5.30500000	      0.00000005	     -0.00355154	    -26.94627540	     13.74166798	    -13.74166798	     93.20848635	      5.50226054	      8.71074689	    -40.24458325	     62.54604557	     -1.37041354	   -189.82345544	   -122.63400947	    157.52772904	     17.04599463	     23.69443611	      0.28686364
      5.31000000	      0.00000005	     -0.00358497	    -26.76857539	     13.74960621	    -13.74960621	     93.16269170	      5.58746177	      8.75015346	    -40.24270605	     62.21517733	     -0.89624431	   -191.07792407	   -123.43995989	    158.68615575	     16.71391799	     24.04482169	      0.50201472
      5.31500000	      0.00000004	     -0.00370611	    -26.56454186	     13.74490814	    -13.74490814	     93.00229313	      5.88593084	      8.88822397	    -40.23466966	     61.77115354	     -0.41505942	   -191.68441977	   -124.49673171	    159.49050342	     16.35760666	     23.94072472	      0.88020521
      5.32000000	      0.00000004	     -0.00377088	    -26.37668914	     13.74008661	    -13.74008661	     92.91980279	      6.03945674	      8.95925954	    -40.23106560	     61.41930795	      0.09589714	   -193.52910548	   -125.29258852	    161.14259277	     15.95737414	     24.69201732	      1.16563169
      5.32500000	      0.00000004	     -0.00382812	    -26.20367366	     13.74838579	    -13.74838579	     92.84860870	      6.17197414	      9.02058284	    -40.22808271	     61.08992114	      0.57205389	   -195.06170546	   -126.07291770	    162.46712284	     15.58903741	     25.30533243	      1.39550004
      5.33000000	      0.00000004	     -0.00387542	    -26.04590823	     13.73651537	    -13.73651537	     92.79091899	      6.27936552	      9.07028451	    -40.22570712	     60.78437618	      1.01472901	   -195.15570277	   -127.08315620	    162.66929483	     15.23208894	     25.07897508	      1.66692516
      5.33500000	      0.00000004	     -0.00396778	    -25.86363359	     13.73236853	    -13.73236853	     92.68104149	      6.48393206	      9.16497355	    -40.22111861	     60.43431393	      1.52642781	   -195.30073995	   -128.22624439	    162.90346763	     14.83408802	     24.84262377	      1.95044730
      5.34000000	      0.00000004	     -0.00404996	    -25.69550484	     13.74113030	    -13.74113030	     92.58610009	      6.66071811	      9.24681820	    -40.21712123	     60.10569378	      2.00405668	   -195.45723916	   -129.27667403	    163.10415532	     14.47348993	     24.62913630	      2.17665664
      5.34500000	      0.00000004	     -0.00407732	    -25.42990062	     13.73538142	    -13.73538142	     92.55506207	      6.71851820	      9.27358027	    -40.02203683	     59.68614784	      2.54404153	   -195.54349317	   -130.38445562	    163.39159674	     14.15846600	     24.47182874	      2.65110093
      5.35000000	      0.00000004	     -0.00404704	    -25.10186835	     13.75798833	    -13.75798833	     92.58944455	      6.65449022	      9.24393477	    -39.63565636	     59.14353783	      2.95045035	   -195.50432546	   -131.17961975	    163.78854643	     14.08818413	     24.29040571	      3.29063975
